HIERARCHY
ROOT Hips
{
  OFFSET 0 0 0
  CHANNELS 6 Xposition Yposition Zposition Zrotation Yrotation Xrotation
  JOINT LeftThigh
  {
    OFFSET 8.409438 0 -5.917753
    CHANNELS 3 Zrotation Yrotation Xrotation
    JOINT LeftLeg
    {
      OFFSET 0 0 -42.358652
      CHANNELS 3 Zrotation Yrotation Xrotation
      JOINT LeftFoot
      {
        OFFSET 0 0 -39.357303
        CHANNELS 3 Zrotation Yrotation Xrotation
      }
    }
  }
  JOINT RightThigh
  {
    OFFSET -8.409438 0 -5.917753
    CHANNELS 3 Zrotation Yrotation Xrotation
    JOINT RightLeg
    {
      OFFSET 0 0 -42.358652
      CHANNELS 3 Zrotation Yrotation Xrotation
      JOINT RightFoot
      {
        OFFSET 0 0 -39.357303
        CHANNELS 3 Zrotation Yrotation Xrotation
      }
    }
  }
  JOINT SpineLow
  {
    OFFSET 0 0 4.719101
    CHANNELS 3 Zrotation Yrotation Xrotation
    JOINT SpineMid
    {
      OFFSET 0 0 12.899191
      CHANNELS 3 Zrotation Yrotation Xrotation
      JOINT Chest
      {
        OFFSET 0 0 12.899191
        CHANNELS 3 Zrotation Yrotation Xrotation
        JOINT LeftShoulder
        {
          OFFSET 7.550562 1.41573 9.438202
          CHANNELS 3 Zrotation Yrotation Xrotation
          JOINT LeftArm
          {
            OFFSET 9.155056 0 4.247191
            CHANNELS 3 Zrotation Yrotation Xrotation
            JOINT LeftForearm
            {
              OFFSET 0 0 25.771955
              CHANNELS 3 Zrotation Yrotation Xrotation
              JOINT LeftHand
              {
                OFFSET 0 0 25.197169
                CHANNELS 3 Zrotation Yrotation Xrotation
              }
            }
          }
        }
        JOINT RightShoulder
        {
          OFFSET -7.550562 1.41573 9.438202
          CHANNELS 3 Zrotation Yrotation Xrotation
          JOINT RightArm
          {
            OFFSET -9.155056 0 4.247191
            CHANNELS 3 Zrotation Yrotation Xrotation
            JOINT RightForearm
            {
              OFFSET 0 0 -25.771955
              CHANNELS 3 Zrotation Yrotation Xrotation
              JOINT RightHand
              {
                OFFSET 0 0 -25.197169
                CHANNELS 3 Zrotation Yrotation Xrotation
              }
            }
          }
        }
        JOINT Neck
        {
          OFFSET 0 0 15.101124
          CHANNELS 3 Zrotation Yrotation Xrotation
          JOINT Head
          {
            OFFSET 0 0 11.325843
            CHANNELS 3 Zrotation Yrotation Xrotation
            End Site
            {
              OFFSET 0 0 14.157303
            }
          }
        }
      }
    }
  }
}
MOTION
Frames: 7
Frame Time: 0.0
0.0  89.887642  0.0  10.118886  20.050987  -86.757312  10.609394  -35.182308  29.368845  13.466704  24.512898  27.536608  -1.40742  1.52932  -0.642088  -16.437526  9.887036  -51.267841  8.806607  4.285406  65.720378  3.250356  4.211844  1.968012  2.552079  0.381435  2.416146  7.006249  0.785491  6.636361  7.006249  0.785491  6.636361  -28.550159  12.829906  -3.847077  163.902031  69.746162  -128.343522  -28.590051  -16.745924  99.442766  81.836693  12.969545  2.242259  -4.027968  1.453377  0.970371  3.980602  54.977892  -34.436439  -48.001457  7.179983  -100.09611  51.089469  -41.184653  -49.60177  -32.331796  -3.742925  -9.034985  -24.301796  -2.336923  -6.9957  
0.0  89.887642  0.0  9.952326  18.171085  -87.571013  9.234406  -33.775029  32.322765  14.509913  23.702066  26.264086  -0.810105  1.38897  -0.485918  -15.104096  9.533953  -50.259638  8.823662  3.829825  65.515977  3.176154  4.24158  2.097742  2.453786  0.417095  2.408391  6.741434  0.893417  6.617981  6.741433  0.893417  6.617981  -28.616513  11.595525  -5.453299  174.960915  72.602607  -117.96412  -29.250399  -18.245982  99.90542  83.947168  17.521479  1.945658  -3.496341  1.578268  -0.494435  3.739157  57.426256  -38.552749  -51.411316  12.885065  -100.949983  49.449195  -37.555174  -50.305605  -30.732595  -3.334445  -8.594823  -23.095206  -2.074787  -6.632333  
0.0  89.887642  0.0  9.728937  16.088101  -88.495575  8.257319  -32.339295  35.255019  15.346733  22.836789  24.856603  -0.064839  1.249929  -0.351937  -13.644242  9.08176  -49.021241  8.959464  3.280229  65.194485  3.018852  4.059031  2.24802  2.303137  0.47763  2.366314  6.335704  1.077685  6.507346  6.335704  1.077685  6.507347  -27.943812  10.303883  -6.61283  -170.862739  74.765837  -104.279603  -29.734059  -20.95913  99.475678  86.784556  22.181798  3.970579  -2.349294  1.533565  -1.915877  2.933244  60.414685  -42.619453  -53.385876  17.321075  -100.991378  46.741689  -34.458836  -49.303196  -28.848195  -2.922926  -8.037361  -21.674306  -1.817541  -6.181341  
0.0  89.887642  0.0  9.443766  14.064805  -89.315865  7.694978  -30.923963  37.838788  15.967612  21.821441  23.400746  0.944468  1.080524  -0.186923  -12.289829  8.434403  -47.748566  8.838892  3.178507  64.812554  2.854246  4.264967  2.433596  2.20241  0.512618  2.300071  6.063151  1.189171  6.328324  6.06315  1.189171  6.328323  -27.676557  9.0306  -7.484002  -153.80641  75.817308  -87.636364  -29.647889  -24.842309  98.196449  90.026931  26.626016  7.380011  -1.589212  1.548446  -3.503617  1.849512  64.024678  -46.737633  -53.998638  20.593324  -99.755914  44.675698  -31.753839  -46.122116  -27.206297  -2.544994  -7.503973  -20.436246  -1.578331  -5.754097  
0.0  89.887642  0.0  9.09311  12.008164  -90.156644  7.512504  -29.566751  40.24354  16.487096  20.602052  21.938001  1.741935  1.016802  -0.103341  -11.389544  7.167992  -46.309035  9.251536  3.690554  64.369988  2.906674  4.496105  2.466618  2.09596  0.535716  2.243378  5.773765  1.267387  6.173873  5.773764  1.267387  6.173873  -27.773286  7.665336  -8.614833  -136.485198  76.265519  -71.218962  -29.105619  -29.698419  96.151271  92.541532  30.441988  12.323796  -0.829791  1.708282  -5.305611  0.095566  67.933329  -51.390706  -53.869667  23.793767  -97.143546  41.622688  -30.786042  -41.880201  -25.572109  -2.247727  -7.029107  -19.20547  -1.394512  -5.376527  
0.0  89.887642  0.0  8.637785  9.894797  -90.873736  7.597829  -28.227602  42.384892  17.162883  19.173068  20.600287  2.24971  0.960316  -0.042122  -10.793467  5.553912  -45.010717  10.237144  4.368791  63.926927  3.283515  4.427233  2.491863  1.97783  0.549825  2.170292  5.451197  1.323016  5.97341  5.451197  1.323016  5.97341  -27.455087  5.935255  -9.636544  -119.304037  76.169869  -55.037515  -27.755322  -34.314549  92.773089  92.409628  32.596424  14.463156  -0.067081  2.020435  -7.262304  -3.514071  71.722828  -57.680087  -53.734003  28.513401  -93.489032  39.075564  -30.436699  -38.644262  -23.85392  -2.0348  -6.563471  -17.912848  -1.272177  -5.010672  
0.0  89.887642  0.0  8.064639  7.702039  -91.384404  7.750837  -26.792521  44.240149  18.005511  17.714361  19.356195  2.658713  0.996709  0.255598  -9.829641  4.072167  -43.913914  11.047387  4.816639  63.489367  3.877821  4.333258  2.572922  1.92066  0.559547  2.057871  5.293859  1.363785  5.66608  5.293859  1.363785  5.66608  -27.187595  4.261773  -10.692289  -102.059191  76.523737  -38.573255  -26.376288  -37.742371  88.314661  93.771154  33.886924  19.036063  0.335503  2.289779  -9.170615  -10.57692  75.419576  -67.107498  -53.384516  35.226485  -89.119627  37.913496  -27.055812  -37.896912  -22.350339  -1.875568  -6.086406  -16.781896  -1.185947  -4.640431  
